<svg width="124" height="38" viewBox="0 0 124 38" fill="none" xmlns="http://www.w3.org/2000/svg">
<path fill-rule="evenodd" clip-rule="evenodd" d="M14.7898 28.5162C13.359 28.5162 12.1965 27.3372 12.1965 25.8861V25.8019H9.5457V25.8732C9.5457 28.8077 11.8899 31.1916 14.7834 31.1916C17.6769 31.1916 20.0274 28.8142 20.0274 25.8732V25.8019H17.3767V25.8732C17.383 27.3242 16.2269 28.5097 14.7961 28.5162H14.7834H14.7898ZM9.67984 11.2134C7.59116 11.2264 5.90489 12.9495 5.91766 15.0678C5.93044 17.1862 7.62948 18.8964 9.71816 18.8834C11.7941 18.8704 13.474 17.1667 13.4803 15.0614C13.4803 12.9366 11.7877 11.2199 9.699 11.2134H9.67984ZM8.49178 15.0614C8.49178 14.3941 9.02194 13.85 9.67984 13.8435C10.3377 13.837 10.8743 14.3812 10.8807 15.0484C10.8807 15.7156 10.3505 16.2598 9.69261 16.2663H9.67984C9.02194 16.2663 8.49178 15.7286 8.49178 15.0614ZM3.32438 8.29185C10.6124 5.94681 13.3654 4.48278 14.6301 3.75725C15.8692 4.4763 18.6477 5.94033 25.9358 8.29185C25.9358 9.12104 26.3893 34.6185 14.6301 34.599C2.87087 34.5796 3.32438 9.12104 3.32438 8.29185ZM14.6301 38C29.8385 38 29.2381 6.90556 29.2381 5.83021C19.8166 2.7985 16.2397 0.913399 14.6301 0C13.0077 0.926355 9.42434 2.81146 0.00293096 5.83021C0.00293096 6.90556 -0.578321 38.0194 14.6301 38ZM15.8565 13.6686V16.2598H23.1764V13.6686H15.8565Z" fill="white"/>
<path d="M42.4062 13.6632V5.40802H48.4767V6.70526H43.8448V8.85161H47.9503V10.1489H43.8448V12.366H48.5351V13.6632H42.4062Z" fill="white"/>
<path d="M51.9173 13.7104L49.3791 7.43644H50.8997L52.5606 12.0122L54.2332 7.43644H55.7186L53.1922 13.7104H51.9173Z" fill="white"/>
<path d="M59.3966 13.8047C58.4921 13.8047 57.7357 13.502 57.1275 12.8966C56.5271 12.2913 56.2269 11.509 56.2269 10.5498C56.2269 9.64568 56.5115 8.87913 57.0807 8.25016C57.6499 7.62119 58.3712 7.30671 59.2446 7.30671C60.1803 7.30671 60.9055 7.62906 61.4201 8.27375C61.9426 8.91057 62.2038 9.70464 62.2038 10.656C62.2038 10.8289 62.196 10.9626 62.1804 11.0569H57.6421C57.7201 11.5522 57.919 11.9414 58.2387 12.2244C58.5584 12.4996 58.9522 12.6372 59.42 12.6372C60.0282 12.6372 60.5858 12.3895 61.0926 11.8942L61.9231 12.6372C61.2837 13.4155 60.4415 13.8047 59.3966 13.8047ZM57.6305 10.1135H60.8002C60.7534 9.63388 60.5936 9.24078 60.3206 8.93416C60.0477 8.62754 59.6851 8.47423 59.2329 8.47423C58.804 8.47423 58.4453 8.62754 58.1568 8.93416C57.8683 9.23292 57.6928 9.62602 57.6305 10.1135Z" fill="white"/>
<path d="M63.6251 13.6632V7.43644H65.0404V8.40347C65.5316 7.6723 66.1749 7.30671 66.9703 7.30671C67.6565 7.30671 68.1945 7.52292 68.5844 7.95533C68.9743 8.38775 69.1692 8.96954 69.1692 9.70071V13.6632H67.754V10.1253C67.754 9.63782 67.637 9.26437 67.4031 9.00492C67.1769 8.73761 66.8533 8.60395 66.4323 8.60395C66.019 8.60395 65.6837 8.74154 65.4264 9.01671C65.169 9.29188 65.0404 9.66926 65.0404 10.1489V13.6632H63.6251Z" fill="white"/>
<path d="M72.9486 13.7693C71.7633 13.7693 71.1707 13.16 71.1707 11.9414V8.66292H70.387V7.43644H71.1707V5.72644H72.586V7.43644H74.2469V8.66292H72.586V11.7173C72.586 12.2362 72.8394 12.4957 73.3463 12.4957C73.6504 12.4957 73.9428 12.4249 74.2235 12.2834V13.4509C73.8492 13.6632 73.4242 13.7693 72.9486 13.7693Z" fill="white"/>
<path d="M82.6913 13.7929C81.8414 13.7929 81.1435 13.4273 80.5976 12.6962V13.6632H79.1824V5.05423H80.5976V8.47423C81.1435 7.69589 81.8414 7.30671 82.6913 7.30671C83.4711 7.30671 84.1456 7.60154 84.7148 8.19119C85.284 8.77299 85.5686 9.56313 85.5686 10.5616C85.5686 11.5444 85.284 12.3306 84.7148 12.9202C84.1456 13.502 83.4711 13.7929 82.6913 13.7929ZM82.3638 12.5546C82.8629 12.5546 83.28 12.3699 83.6153 12.0004C83.9584 11.6309 84.13 11.1434 84.13 10.538C84.13 9.94837 83.9584 9.46878 83.6153 9.09926C83.2722 8.72975 82.8551 8.54499 82.3638 8.54499C81.8726 8.54499 81.4476 8.73368 81.0889 9.11106C80.738 9.48844 80.5625 9.97195 80.5625 10.5616C80.5625 11.1434 80.738 11.623 81.0889 12.0004C81.4476 12.3699 81.8726 12.5546 82.3638 12.5546Z" fill="white"/>
<path d="M87.9844 15.5855C87.4697 15.5855 86.9823 15.4597 86.5223 15.2081L87.0018 14.1467C87.2904 14.304 87.5672 14.3826 87.8323 14.3826C88.035 14.3826 88.2027 14.3275 88.3352 14.2175C88.4678 14.1153 88.5926 13.9305 88.7095 13.6632L86.1363 7.43644H87.6451L89.3996 12.0593L91.002 7.43644H92.4758L90.0195 13.8401C89.77 14.4769 89.4932 14.9251 89.1891 15.1845C88.885 15.4518 88.4834 15.5855 87.9844 15.5855Z" fill="white"/>
<path d="M47.966 33.0742C46.001 33.0742 44.406 32.4505 43.1809 31.203C41.9679 29.9434 41.3614 28.3535 41.3614 26.4334C41.3614 24.5989 41.98 23.0335 43.2173 21.7371C44.4666 20.4407 46.0374 19.7926 47.9297 19.7926C48.9971 19.7926 49.9068 19.9393 50.6588 20.2328C51.4109 20.5141 52.1326 20.9483 52.824 21.5353L51.4048 23.2414C50.8711 22.7767 50.3313 22.4342 49.7855 22.2141C49.2518 21.9817 48.6029 21.8655 47.8387 21.8655C46.6742 21.8655 45.6917 22.3119 44.8912 23.2047C44.1027 24.0975 43.7085 25.1737 43.7085 26.4334C43.7085 27.7665 44.1088 28.8671 44.9094 29.7355C45.7099 30.5916 46.7531 31.0196 48.0388 31.0196C49.2275 31.0196 50.2525 30.6955 51.1137 30.0473V27.6442H47.8569V25.6813H53.2789V31.0746C51.7384 32.4077 49.9675 33.0742 47.966 33.0742Z" fill="white"/>
<path d="M55.611 21.6821V19.5724H57.9763V21.6821H55.611ZM55.702 32.8541V23.168H57.9036V32.8541H55.702Z" fill="white"/>
<path d="M63.6373 33.0192C61.7935 33.0192 60.8717 32.0714 60.8717 30.1757V25.0759H59.6526V23.168H60.8717V20.508H63.0732V23.168H65.6568V25.0759H63.0732V29.8272C63.0732 30.6344 63.4674 31.0379 64.2559 31.0379C64.7289 31.0379 65.1838 30.9279 65.6205 30.7077V32.5239C65.0382 32.8541 64.3772 33.0192 63.6373 33.0192Z" fill="white"/>
<path d="M67.7703 32.8541V20.0127H69.8444L76.6674 28.8916V20.0127H78.8689V32.8541H76.9949L69.9718 23.7184V32.8541H67.7703Z" fill="white"/>
<path d="M89.5863 32.8541H87.4029V31.6617C86.6266 32.5911 85.5895 33.0559 84.2916 33.0559C83.3334 33.0559 82.5207 32.7929 81.8536 32.267C81.1986 31.7289 80.8711 30.9829 80.8711 30.029C80.8711 28.9894 81.2289 28.2006 81.9445 27.6625C82.6602 27.1244 83.6003 26.8553 84.7647 26.8553C85.6987 26.8553 86.5842 26.9899 87.4211 27.2589V27.0755C87.4211 26.4028 87.2149 25.8892 86.8025 25.5345C86.4022 25.1798 85.82 25.0025 85.0558 25.0025C84.1825 25.0025 83.2667 25.2043 82.3084 25.6079L81.708 23.8284C82.8967 23.2903 84.1158 23.0213 85.3651 23.0213C86.76 23.0213 87.8093 23.3759 88.5128 24.0853C89.2284 24.7946 89.5863 25.8036 89.5863 27.1122V32.8541ZM87.4575 29.3502V28.7999C86.8025 28.543 86.0686 28.4146 85.256 28.4146C84.5646 28.4146 84.0248 28.5492 83.6366 28.8182C83.2485 29.0873 83.0544 29.4664 83.0544 29.9556C83.0544 30.3959 83.2303 30.7444 83.582 31.0013C83.9338 31.2581 84.3765 31.3865 84.9103 31.3865C85.6502 31.3865 86.2567 31.1969 86.7297 30.8178C87.2149 30.4387 87.4575 29.9495 87.4575 29.3502Z" fill="white"/>
<path d="M95.0613 33.0192C93.2176 33.0192 92.2957 32.0714 92.2957 30.1757V25.0759H91.0767V23.168H92.2957V20.508H94.4972V23.168H97.0809V25.0759H94.4972V29.8272C94.4972 30.6344 94.8914 31.0379 95.6799 31.0379C96.1529 31.0379 96.6078 30.9279 97.0445 30.7077V32.5239C96.4622 32.8541 95.8012 33.0192 95.0613 33.0192Z" fill="white"/>
<path d="M98.9759 21.6821V19.5724H101.341V21.6821H98.9759ZM99.0669 32.8541V23.168H101.268V32.8541H99.0669Z" fill="white"/>
<path d="M108.349 33.0742C106.893 33.0742 105.68 32.585 104.71 31.6066C103.739 30.6282 103.254 29.4358 103.254 28.0294C103.254 26.623 103.745 25.4305 104.728 24.4522C105.71 23.4615 106.929 22.9662 108.385 22.9662C109.841 22.9662 111.053 23.4554 112.024 24.4338C113.006 25.4122 113.498 26.6107 113.498 28.0294C113.498 29.4236 113.006 30.616 112.024 31.6066C111.041 32.585 109.816 33.0742 108.349 33.0742ZM108.385 31.148C109.258 31.148 109.962 30.8484 110.496 30.2491C111.029 29.6499 111.296 28.9099 111.296 28.0294C111.296 27.1611 111.017 26.4273 110.459 25.828C109.901 25.2165 109.198 24.9108 108.349 24.9108C107.487 24.9108 106.79 25.2104 106.256 25.8097C105.722 26.4089 105.456 27.1488 105.456 28.0294C105.456 28.8855 105.735 29.6193 106.293 30.2308C106.851 30.8423 107.548 31.148 108.385 31.148Z" fill="white"/>
<path d="M115.376 32.8541V23.168H117.577V24.6723C118.341 23.5349 119.342 22.9662 120.579 22.9662C121.647 22.9662 122.484 23.3025 123.09 23.9752C123.697 24.6478 124 25.5528 124 26.6902V32.8541H121.798V27.3506C121.798 26.5924 121.617 26.0115 121.253 25.6079C120.901 25.1921 120.397 24.9842 119.742 24.9842C119.1 24.9842 118.578 25.1982 118.178 25.6262C117.777 26.0543 117.577 26.6413 117.577 27.3873V32.8541H115.376Z" fill="white"/>
</svg>
