<svg width="358" height="121" viewBox="0 0 358 121" fill="none" xmlns="http://www.w3.org/2000/svg">
<path d="M23.8272 24.2H0V121H166.79V96.8H23.8272V24.2Z" fill="#83F35D"/>
<path d="M166.79 0H23.8272V24.2H166.79V0Z" fill="#83F35D"/>
<path d="M190.617 0V24.2H333.58V48.4H214.445V72.6H333.58V96.8H357.408V0H190.617Z" fill="#83F35D"/>
<path d="M333.58 96.8H190.617V121H333.58V96.8Z" fill="#83F35D"/>
<path d="M49.0061 49.8453C48.4476 49.8453 47.9611 49.7377 47.5465 49.5226C47.1319 49.3074 46.8146 48.9976 46.5946 48.5931C46.3746 48.18 46.2646 47.6938 46.2646 47.1344V42.8745C46.2646 42.3152 46.3746 41.8332 46.5946 41.4288C46.8146 41.0157 47.1319 40.7016 47.5465 40.4864C47.9611 40.2713 48.4476 40.1637 49.0061 40.1637C49.556 40.1637 50.0341 40.2756 50.4402 40.4993C50.8548 40.7145 51.1721 41.0286 51.3921 41.4417C51.6121 41.8461 51.7221 42.3238 51.7221 42.8745H50.5798C50.5798 42.341 50.4402 41.9279 50.161 41.6353C49.8903 41.3427 49.5053 41.1964 49.0061 41.1964C48.5069 41.1964 48.1134 41.3427 47.8257 41.6353C47.5465 41.9279 47.4069 42.3367 47.4069 42.8616V47.1344C47.4069 47.668 47.5465 48.0811 47.8257 48.3737C48.105 48.6663 48.4984 48.8126 49.0061 48.8126C49.5053 48.8126 49.8903 48.6663 50.161 48.3737C50.4402 48.0811 50.5798 47.668 50.5798 47.1344H51.7221C51.7221 47.6852 51.6121 48.1671 51.3921 48.5802C51.1721 48.9847 50.8548 49.2988 50.4402 49.5226C50.0341 49.7377 49.556 49.8453 49.0061 49.8453Z" fill="#83F35D"/>
<path d="M56.5654 49.8453C56.0154 49.8453 55.5374 49.7377 55.1312 49.5226C54.7251 49.3074 54.412 48.9976 54.192 48.5931C53.9805 48.18 53.8747 47.6938 53.8747 47.1344V45.1981C53.8747 44.6387 53.9805 44.1568 54.192 43.7523C54.412 43.3393 54.7251 43.0251 55.1312 42.81C55.5374 42.5948 56.0154 42.4873 56.5654 42.4873C57.1154 42.4873 57.5934 42.5948 57.9996 42.81C58.4057 43.0251 58.7145 43.3393 58.926 43.7523C59.146 44.1568 59.256 44.6344 59.256 45.1852V47.1344C59.256 47.6938 59.146 48.18 58.926 48.5931C58.7145 48.9976 58.4057 49.3074 57.9996 49.5226C57.5934 49.7377 57.1154 49.8453 56.5654 49.8453ZM56.5654 48.8126C57.0646 48.8126 57.4453 48.6706 57.7076 48.3866C57.9784 48.094 58.1138 47.6766 58.1138 47.1344V45.1981C58.1138 44.656 57.9784 44.2429 57.7076 43.9589C57.4453 43.6663 57.0646 43.52 56.5654 43.52C56.0662 43.52 55.6812 43.6663 55.4104 43.9589C55.1481 44.2429 55.017 44.656 55.017 45.1981V47.1344C55.017 47.6766 55.1481 48.094 55.4104 48.3866C55.6812 48.6706 56.0662 48.8126 56.5654 48.8126Z" fill="#83F35D"/>
<path d="M63.7693 49.8453C63.0671 49.8453 62.5086 49.6086 62.094 49.1353C61.6879 48.662 61.4848 48.0208 61.4848 47.2119V45.1336C61.4848 44.316 61.6879 43.6706 62.094 43.1973C62.5086 42.7239 63.0671 42.4873 63.7693 42.4873C64.3447 42.4873 64.8058 42.6465 65.1527 42.9649C65.4996 43.2833 65.6731 43.7093 65.6731 44.2429L65.4446 43.9718H65.6985L65.6731 42.3582V40.2928H66.8154V49.7162H65.6731V48.3608H65.4446L65.6731 48.0897C65.6731 48.6319 65.4996 49.0621 65.1527 49.3806C64.8143 49.6904 64.3532 49.8453 63.7693 49.8453ZM64.1501 48.8384C64.6239 48.8384 64.9962 48.6878 65.267 48.3866C65.5377 48.0854 65.6731 47.668 65.6731 47.1344V45.1981C65.6731 44.6646 65.5377 44.2472 65.267 43.946C64.9962 43.6448 64.6239 43.4942 64.1501 43.4942C63.6678 43.4942 63.2913 43.6448 63.0205 43.946C62.7582 44.2386 62.6271 44.656 62.6271 45.1981V47.1344C62.6271 47.6766 62.7582 48.0983 63.0205 48.3995C63.2913 48.6921 63.6678 48.8384 64.1501 48.8384Z" fill="#83F35D"/>
<path d="M71.7856 49.8453C71.244 49.8453 70.7702 49.7334 70.3641 49.5097C69.9579 49.2859 69.6449 48.9718 69.4249 48.5673C69.2049 48.1542 69.0949 47.6766 69.0949 47.1344V45.1981C69.0949 44.656 69.2049 44.1826 69.4249 43.7782C69.6449 43.3651 69.9579 43.0467 70.3641 42.8229C70.7702 42.5992 71.244 42.4873 71.7856 42.4873C72.3271 42.4873 72.8009 42.5992 73.207 42.8229C73.6132 43.0467 73.9262 43.3651 74.1462 43.7782C74.3662 44.1826 74.4762 44.656 74.4762 45.1981V46.4503H70.2118V47.1344C70.2118 47.7024 70.3429 48.1327 70.6052 48.4253C70.876 48.7179 71.2694 48.8642 71.7856 48.8642C72.2255 48.8642 72.5724 48.7868 72.8263 48.6319C73.0886 48.4683 73.2493 48.2274 73.3086 47.909H74.4508C74.3747 48.5028 74.0955 48.9761 73.6132 49.3289C73.1309 49.6732 72.5217 49.8453 71.7856 49.8453ZM73.3593 45.1981C73.3593 44.6301 73.224 44.1998 72.9532 43.9072C72.6909 43.606 72.3017 43.4554 71.7856 43.4554C71.2694 43.4554 70.876 43.606 70.6052 43.9072C70.3429 44.1998 70.2118 44.6301 70.2118 45.1981V45.5725H73.4482L73.3593 45.6757V45.1981Z" fill="#83F35D"/>
<path d="M49.0061 64.2435C48.4476 64.2435 47.9611 64.136 47.5465 63.9208C47.1319 63.7057 46.8146 63.3959 46.5946 62.9914C46.3746 62.5783 46.2646 62.0921 46.2646 61.5327V57.2728C46.2646 56.7134 46.3746 56.2315 46.5946 55.827C46.8146 55.4139 47.1319 55.0998 47.5465 54.8847C47.9611 54.6695 48.4476 54.5619 49.0061 54.5619C49.556 54.5619 50.0341 54.6738 50.4402 54.8976C50.8548 55.1127 51.1721 55.4268 51.3921 55.8399C51.6121 56.2444 51.7221 56.722 51.7221 57.2728H50.5798C50.5798 56.7392 50.4402 56.3261 50.161 56.0335C49.8903 55.7409 49.5053 55.5947 49.0061 55.5947C48.5069 55.5947 48.1134 55.7409 47.8257 56.0335C47.5465 56.3261 47.4069 56.7349 47.4069 57.2599V61.5327C47.4069 62.0662 47.5465 62.4793 47.8257 62.7719C48.105 63.0645 48.4984 63.2108 49.0061 63.2108C49.5053 63.2108 49.8903 63.0645 50.161 62.7719C50.4402 62.4793 50.5798 62.0662 50.5798 61.5327H51.7221C51.7221 62.0835 51.6121 62.5654 51.3921 62.9785C51.1721 63.3829 50.8548 63.6971 50.4402 63.9208C50.0341 64.136 49.556 64.2435 49.0061 64.2435Z" fill="#83F35D"/>
<path d="M55.9181 64.2435C55.2074 64.2435 54.6405 64.0542 54.2174 63.6755C53.7944 63.2969 53.5828 62.7848 53.5828 62.1394C53.5828 61.4595 53.7901 60.926 54.2047 60.5387C54.6278 60.1514 55.2031 59.9578 55.9308 59.9578H58.0884V59.2737C58.0884 58.8434 57.953 58.512 57.6823 58.2797C57.42 58.0387 57.0519 57.9182 56.5781 57.9182C56.1635 57.9182 55.8208 58.0043 55.55 58.1764C55.2793 58.3485 55.1228 58.5852 55.0805 58.8864H53.9382C54.0143 58.284 54.2936 57.8021 54.7758 57.4406C55.2581 57.0792 55.8631 56.8984 56.5908 56.8984C57.403 56.8984 58.0461 57.1093 58.5199 57.531C58.9937 57.944 59.2307 58.512 59.2307 59.2349V64.1144H58.1138V62.759H57.8473L58.1138 62.617C58.1138 63.1076 57.9065 63.5034 57.4919 63.8046C57.0773 64.0972 56.5527 64.2435 55.9181 64.2435ZM56.1846 63.327C56.7431 63.327 57.2 63.1936 57.5553 62.9268C57.9107 62.6514 58.0884 62.2943 58.0884 61.8554V60.8485H55.9562C55.5754 60.8485 55.2751 60.9561 55.0551 61.1712C54.8351 61.3864 54.7251 61.6833 54.7251 62.0619C54.7251 62.4578 54.8562 62.7676 55.1185 62.9914C55.3808 63.2151 55.7362 63.327 56.1846 63.327Z" fill="#83F35D"/>
<path d="M61.7767 64.1144V57.0146H62.8936V58.37H63.1601L62.7921 59.2091C62.7921 58.4432 62.9528 57.8666 63.2744 57.4793C63.6043 57.0835 64.0909 56.8855 64.7339 56.8855C65.47 56.8855 66.0538 57.1222 66.4854 57.5955C66.9253 58.0602 67.1453 58.6928 67.1453 59.4931V59.9191H66.0031V59.5964C66.0031 59.0456 65.8677 58.6196 65.5969 58.3184C65.3347 58.0172 64.9581 57.8666 64.4674 57.8666C63.9851 57.8666 63.6043 58.0215 63.3251 58.3313C63.0544 58.6325 62.919 59.0542 62.919 59.5964V64.1144H61.7767Z" fill="#83F35D"/>
<path d="M71.7856 64.2435C71.244 64.2435 70.7702 64.1317 70.3641 63.9079C69.9579 63.6842 69.6449 63.37 69.4249 62.9656C69.2049 62.5525 69.0949 62.0749 69.0949 61.5327V59.5964C69.0949 59.0542 69.2049 58.5809 69.4249 58.1764C69.6449 57.7633 69.9579 57.4449 70.3641 57.2212C70.7702 56.9974 71.244 56.8855 71.7856 56.8855C72.3271 56.8855 72.8009 56.9974 73.207 57.2212C73.6132 57.4449 73.9262 57.7633 74.1462 58.1764C74.3662 58.5809 74.4762 59.0542 74.4762 59.5964V60.8485H70.2118V61.5327C70.2118 62.1007 70.3429 62.531 70.6052 62.8236C70.876 63.1162 71.2694 63.2625 71.7856 63.2625C72.2255 63.2625 72.5724 63.185 72.8263 63.0301C73.0886 62.8666 73.2493 62.6256 73.3086 62.3072H74.4508C74.3747 62.901 74.0955 63.3743 73.6132 63.7272C73.1309 64.0714 72.5217 64.2435 71.7856 64.2435ZM73.3593 59.5964C73.3593 59.0284 73.224 58.5981 72.9532 58.3055C72.6909 58.0043 72.3017 57.8537 71.7856 57.8537C71.2694 57.8537 70.876 58.0043 70.6052 58.3055C70.3429 58.5981 70.2118 59.0284 70.2118 59.5964V59.9707H73.4482L73.3593 60.074V59.5964Z" fill="#83F35D"/>
<path d="M79.3956 64.2435C78.8541 64.2435 78.3803 64.1317 77.9742 63.9079C77.568 63.6842 77.255 63.37 77.035 62.9656C76.815 62.5525 76.705 62.0749 76.705 61.5327V59.5964C76.705 59.0542 76.815 58.5809 77.035 58.1764C77.255 57.7633 77.568 57.4449 77.9742 57.2212C78.3803 56.9974 78.8541 56.8855 79.3956 56.8855C79.9372 56.8855 80.411 56.9974 80.8171 57.2212C81.2233 57.4449 81.5363 57.7633 81.7563 58.1764C81.9763 58.5809 82.0863 59.0542 82.0863 59.5964V60.8485H77.8219V61.5327C77.8219 62.1007 77.953 62.531 78.2153 62.8236C78.4861 63.1162 78.8795 63.2625 79.3956 63.2625C79.8356 63.2625 80.1825 63.185 80.4364 63.0301C80.6987 62.8666 80.8594 62.6256 80.9187 62.3072H82.0609C81.9848 62.901 81.7055 63.3743 81.2233 63.7272C80.741 64.0714 80.1318 64.2435 79.3956 64.2435ZM80.9694 59.5964C80.9694 59.0284 80.834 58.5981 80.5633 58.3055C80.301 58.0043 79.9118 57.8537 79.3956 57.8537C78.8795 57.8537 78.4861 58.0043 78.2153 58.3055C77.953 58.5981 77.8219 59.0284 77.8219 59.5964V59.9707H81.0583L80.9694 60.074V59.5964Z" fill="#83F35D"/>
<path d="M84.607 64.1144V57.0146H85.7239V58.37H85.9904L85.6223 59.2091C85.6223 58.4432 85.7831 57.8666 86.1046 57.4793C86.4346 57.0835 86.9211 56.8855 87.5642 56.8855C88.3003 56.8855 88.8841 57.1222 89.3156 57.5955C89.7556 58.0602 89.9756 58.6928 89.9756 59.4931V59.9191H88.8333V59.5964C88.8333 59.0456 88.698 58.6196 88.4272 58.3184C88.1649 58.0172 87.7884 57.8666 87.2976 57.8666C86.8154 57.8666 86.4346 58.0215 86.1554 58.3313C85.8846 58.6325 85.7493 59.0542 85.7493 59.5964V64.1144H84.607Z" fill="#83F35D"/>
<path d="M49.0061 78.6418C48.4476 78.6418 47.9611 78.5342 47.5465 78.3191C47.1319 78.1039 46.8146 77.7941 46.5946 77.3896C46.3746 76.9765 46.2646 76.4903 46.2646 75.9309V71.671C46.2646 71.1117 46.3746 70.6297 46.5946 70.2253C46.8146 69.8122 47.1319 69.4981 47.5465 69.2829C47.9611 69.0678 48.4476 68.9602 49.0061 68.9602C49.556 68.9602 50.0341 69.0721 50.4402 69.2958C50.8548 69.511 51.1721 69.8251 51.3921 70.2382C51.6121 70.6426 51.7221 71.1203 51.7221 71.671H50.5798C50.5798 71.1375 50.4402 70.7244 50.161 70.4318C49.8903 70.1392 49.5053 69.9929 49.0061 69.9929C48.5069 69.9929 48.1134 70.1392 47.8257 70.4318C47.5465 70.7244 47.4069 71.1332 47.4069 71.6581V75.9309C47.4069 76.4645 47.5465 76.8776 47.8257 77.1702C48.105 77.4628 48.4984 77.6091 49.0061 77.6091C49.5053 77.6091 49.8903 77.4628 50.161 77.1702C50.4402 76.8776 50.5798 76.4645 50.5798 75.9309H51.7221C51.7221 76.4817 51.6121 76.9636 51.3921 77.3767C51.1721 77.7812 50.8548 78.0953 50.4402 78.3191C50.0341 78.5342 49.556 78.6418 49.0061 78.6418Z" fill="#83F35D"/>
<path d="M54.1666 78.5127V71.4129H55.2835V72.7683H55.55L55.182 73.6074C55.182 72.8414 55.3427 72.2648 55.6643 71.8776C55.9943 71.4817 56.4808 71.2838 57.1238 71.2838C57.8599 71.2838 58.4438 71.5204 58.8753 71.9938C59.3153 72.4585 59.5353 73.091 59.5353 73.8914V74.3173H58.393V73.9946C58.393 73.4438 58.2576 73.0179 57.9869 72.7167C57.7246 72.4155 57.348 72.2648 56.8573 72.2648C56.375 72.2648 55.9943 72.4198 55.715 72.7296C55.4443 73.0308 55.3089 73.4525 55.3089 73.9946V78.5127H54.1666Z" fill="#83F35D"/>
<path d="M64.1755 78.6418C63.634 78.6418 63.1601 78.5299 62.754 78.3062C62.3479 78.0824 62.0348 77.7683 61.8148 77.3638C61.5948 76.9507 61.4848 76.4731 61.4848 75.9309V73.9946C61.4848 73.4525 61.5948 72.9791 61.8148 72.5747C62.0348 72.1616 62.3479 71.8432 62.754 71.6194C63.1601 71.3957 63.634 71.2838 64.1755 71.2838C64.717 71.2838 65.1908 71.3957 65.5969 71.6194C66.0031 71.8432 66.3161 72.1616 66.5361 72.5747C66.7561 72.9791 66.8661 73.4525 66.8661 73.9946V75.2468H62.6017V75.9309C62.6017 76.4989 62.7328 76.9292 62.9951 77.2218C63.2659 77.5144 63.6593 77.6607 64.1755 77.6607C64.6155 77.6607 64.9624 77.5833 65.2162 77.4284C65.4785 77.2648 65.6393 77.0239 65.6985 76.7055H66.8407C66.7646 77.2993 66.4854 77.7726 66.0031 78.1254C65.5208 78.4697 64.9116 78.6418 64.1755 78.6418ZM65.7492 73.9946C65.7492 73.4266 65.6139 72.9963 65.3431 72.7037C65.0808 72.4025 64.6916 72.2519 64.1755 72.2519C63.6593 72.2519 63.2659 72.4025 62.9951 72.7037C62.7328 72.9963 62.6017 73.4266 62.6017 73.9946V74.369H65.8381L65.7492 74.4722V73.9946Z" fill="#83F35D"/>
<path d="M71.1383 78.6418C70.4275 78.6418 69.8606 78.4525 69.4376 78.0738C69.0145 77.6951 68.803 77.1831 68.803 76.5377C68.803 75.8578 69.0103 75.3242 69.4249 74.937C69.848 74.5497 70.4233 74.3561 71.151 74.3561H73.3086V73.6719C73.3086 73.2416 73.1732 72.9103 72.9024 72.6779C72.6401 72.437 72.2721 72.3165 71.7983 72.3165C71.3837 72.3165 71.041 72.4025 70.7702 72.5747C70.4995 72.7468 70.3429 72.9834 70.3006 73.2846H69.1584C69.2345 72.6822 69.5137 72.2003 69.996 71.8389C70.4783 71.4774 71.0833 71.2967 71.8109 71.2967C72.6232 71.2967 73.2663 71.5075 73.7401 71.9292C74.2139 72.3423 74.4508 72.9103 74.4508 73.6332V78.5127H73.334V77.1573H73.0674L73.334 77.0153C73.334 77.5058 73.1267 77.9017 72.7121 78.2029C72.2975 78.4955 71.7729 78.6418 71.1383 78.6418ZM71.4048 77.7253C71.9632 77.7253 72.4201 77.5919 72.7755 77.3251C73.1309 77.0497 73.3086 76.6926 73.3086 76.2537V75.2468H71.1764C70.7956 75.2468 70.4952 75.3543 70.2752 75.5695C70.0553 75.7846 69.9453 76.0815 69.9453 76.4602C69.9453 76.8561 70.0764 77.1659 70.3387 77.3896C70.601 77.6134 70.9564 77.7253 71.4048 77.7253Z" fill="#83F35D"/>
<path d="M80.1572 78.5127C79.5564 78.5127 79.0868 78.3492 78.7484 78.0222C78.4184 77.6951 78.2534 77.2347 78.2534 76.6409V72.4714H76.2862V71.4129H78.2534V69.4766H79.3956V71.4129H82.1878V72.4714H79.3956V76.6409C79.3956 76.9163 79.4549 77.1229 79.5733 77.2605C79.7002 77.3896 79.8949 77.4542 80.1572 77.4542H82.0609V78.5127H80.1572Z" fill="#83F35D"/>
<path d="M84.2136 78.5127V77.4542H86.6884V72.4714H84.5308V71.4129H87.8307V77.4542H90.1787V78.5127H84.2136ZM87.0057 70.1865C86.7519 70.1865 86.5488 70.1177 86.3965 69.98C86.2527 69.8423 86.1808 69.6573 86.1808 69.4249C86.1808 69.1926 86.2569 69.0032 86.4092 68.8569C86.5615 68.7106 86.7604 68.6375 87.0057 68.6375H87.2596C87.5049 68.6375 87.7038 68.7106 87.8561 68.8569C88.0084 69.0032 88.0845 69.1926 88.0845 69.4249C88.0845 69.6573 88.0084 69.8423 87.8561 69.98C87.7038 70.1177 87.5049 70.1865 87.2596 70.1865H87.0057Z" fill="#83F35D"/>
<path d="M93.8416 78.5127L91.5698 71.4129H92.7374L94.2224 76.1891C94.3747 76.6796 94.5143 77.1573 94.6412 77.622C94.7681 77.1573 94.9077 76.6796 95.06 76.1891L96.5069 71.4129H97.6618L95.39 78.5127H93.8416Z" fill="#83F35D"/>
<path d="M99.4337 78.5127V77.4542H101.909V72.4714H99.751V71.4129H103.051V77.4542H105.399V78.5127H99.4337ZM102.226 70.1865C101.972 70.1865 101.769 70.1177 101.617 69.98C101.473 69.8423 101.401 69.6573 101.401 69.4249C101.401 69.1926 101.477 69.0032 101.629 68.8569C101.782 68.7106 101.981 68.6375 102.226 68.6375H102.48C102.725 68.6375 102.924 68.7106 103.076 68.8569C103.229 69.0032 103.305 69.1926 103.305 69.4249C103.305 69.6573 103.229 69.8423 103.076 69.98C102.924 70.1177 102.725 70.1865 102.48 70.1865H102.226Z" fill="#83F35D"/>
<path d="M110.598 78.5127C109.997 78.5127 109.527 78.3492 109.189 78.0222C108.859 77.6951 108.694 77.2347 108.694 76.6409V72.4714H106.727V71.4129H108.694V69.4766H109.836V71.4129H112.628V72.4714H109.836V76.6409C109.836 76.9163 109.895 77.1229 110.014 77.2605C110.141 77.3896 110.335 77.4542 110.598 77.4542H112.501V78.5127H110.598Z" fill="#83F35D"/>
<path d="M115.936 80.8363L116.964 78.0738L114.4 71.4129H115.669L117.23 75.8018C117.315 76.0514 117.412 76.3957 117.522 76.8346C117.624 76.3957 117.717 76.0514 117.801 75.8018L119.261 71.4129H120.492L117.154 80.8363H115.936Z" fill="#83F35D"/>
</svg>
