<svg width="25" height="24" viewBox="0 0 25 24" fill="none" xmlns="http://www.w3.org/2000/svg">
<g id="Group 7669">
<path id="Exclude" d="M0 7H5.14706V24H0V7ZM2.55809 5H2.52926C0.993382 5 0 3.888 0 2.499C0 1.08 1.02426 0 2.58794 0C4.15368 0 5.11824 1.08 5.14706 2.499C5.14706 3.887 4.15368 5 2.55809 5ZM24.7059 24H19.5588V14.901C19.5588 12.703 18.2978 11.203 16.2729 11.203C14.7278 11.203 13.8919 12.215 13.4863 13.193C13.3381 13.543 13.3824 14.511 13.3824 15V24H8.2353V7H13.3824V9.616C14.1246 8.5 15.2868 7 18.2597 7C21.9429 7 24.7049 9.25 24.7049 14.274L24.7059 24Z" fill="#0F0F0F"/>
</g>
</svg>
