<svg width="10" height="10" viewBox="0 0 10 10" fill="none" xmlns="http://www.w3.org/2000/svg">
<path id="Vector 40" d="M5.4508 0.254288C6.01549 3.13001 8.37948 4.25692 9.75461 4.54857C9.89536 4.57842 10 4.69987 10 4.84375C10 4.98763 9.89413 5.10928 9.75301 5.13729C6.86442 5.71054 5.73747 8.26718 5.44917 9.74729C5.42096 9.8921 5.29675 10 5.14921 10C5.00789 10 4.88648 9.89876 4.85493 9.761C4.08553 6.40242 1.71145 5.31564 0.248055 5.11947C0.108394 5.10075 0 4.98466 0 4.84375C0 4.70284 0.110087 4.58644 0.250139 4.57091C3.37869 4.22399 4.48458 1.70918 4.85161 0.23547C4.88581 0.0981274 5.00728 0 5.14882 0C5.29697 0 5.42226 0.108912 5.4508 0.254288Z" fill="white"/>
</svg>
