<svg width="116" height="149" viewBox="0 0 116 149" fill="none" xmlns="http://www.w3.org/2000/svg">
<rect x="23.4414" width="69.764" height="113.043" rx="34.882" fill="#0F0F0F"/>
<path d="M58.3242 148.571V128.547" stroke="#0F0F0F" stroke-width="12"/>
<path d="M110 77.8384C110 106.557 86.7188 129.838 58 129.838C29.2812 129.838 6 106.557 6 77.8384" stroke="#0F0F0F" stroke-width="12"/>
<circle cx="51.5" cy="22.5" r="6.5" fill="#313131"/>
<circle cx="65.5" cy="22.5" r="6.5" fill="#313131"/>
<circle cx="51.5" cy="36.5" r="6.5" fill="#313131"/>
<circle cx="65.5" cy="36.5" r="6.5" fill="#313131"/>
<circle cx="51.5" cy="50.5" r="6.5" fill="#313131"/>
<circle cx="65.5" cy="50.5" r="6.5" fill="#313131"/>
<circle cx="51.5" cy="64.5" r="6.5" fill="#313131"/>
<circle cx="65.5" cy="64.5" r="6.5" fill="#313131"/>
<circle cx="51.5" cy="78.5" r="6.5" fill="#313131"/>
<circle cx="37.5" cy="36.5" r="6.5" fill="#313131"/>
<circle cx="37.5" cy="50.5" r="6.5" fill="#313131"/>
<circle cx="37.5" cy="64.5" r="6.5" fill="#313131"/>
<circle cx="37.5" cy="78.5" r="6.5" fill="#313131"/>
<circle cx="79.5" cy="36.5" r="6.5" fill="#313131"/>
<circle cx="79.5" cy="50.5" r="6.5" fill="#313131"/>
<circle cx="79.5" cy="64.5" r="6.5" fill="#313131"/>
<circle cx="79.5" cy="78.5" r="6.5" fill="#313131"/>
<circle cx="65.5" cy="78.5" r="6.5" fill="#313131"/>
<circle cx="51.5" cy="92.5" r="6.5" fill="#313131"/>
<circle cx="65.5" cy="92.5" r="6.5" fill="#313131"/>
</svg>
