<svg width="149" height="149" viewBox="0 0 149 149" fill="none" xmlns="http://www.w3.org/2000/svg">
<circle cx="27.5801" cy="9" r="9" fill="#0F0F0F"/>
<circle cx="46.1602" cy="9" r="9" fill="#0F0F0F"/>
<circle cx="64.7402" cy="9" r="9" fill="#0F0F0F"/>
<circle cx="83.3203" cy="9" r="9" fill="#0F0F0F"/>
<circle cx="101.9" cy="9" r="9" fill="#0F0F0F"/>
<circle cx="120.48" cy="9" r="9" fill="#0F0F0F"/>
<circle cx="139.061" cy="9" r="9" fill="#0F0F0F"/>
<circle cx="9" cy="9" r="9" fill="#0F0F0F"/>
<circle cx="27.5801" cy="27.5801" r="9" fill="#0F0F0F"/>
<circle cx="46.1602" cy="27.5801" r="9" fill="#0F0F0F"/>
<circle cx="64.7402" cy="27.5801" r="9" fill="#0F0F0F"/>
<circle cx="83.3203" cy="27.5801" r="9" fill="#0F0F0F"/>
<circle cx="101.9" cy="27.5801" r="9" fill="#0F0F0F"/>
<circle cx="120.48" cy="27.5801" r="9" fill="#0F0F0F"/>
<circle cx="139.061" cy="27.5801" r="9" fill="#0F0F0F"/>
<circle cx="9" cy="27.5801" r="9" fill="#0F0F0F"/>
<circle cx="27.5801" cy="46.1602" r="9" fill="#0F0F0F"/>
<circle cx="46.1602" cy="46.1602" r="9" fill="#0F0F0F"/>
<circle cx="64.7402" cy="46.1602" r="9" fill="#0F0F0F"/>
<circle cx="83.3203" cy="46.1602" r="9" fill="#0F0F0F"/>
<circle cx="101.9" cy="46.1602" r="9" fill="#0F0F0F"/>
<circle cx="120.48" cy="46.1602" r="9" fill="#0F0F0F"/>
<circle cx="139.061" cy="46.1602" r="9" fill="#0F0F0F"/>
<circle cx="9" cy="46.1602" r="9" fill="#0F0F0F"/>
<circle cx="27.5801" cy="64.7402" r="9" fill="#0F0F0F"/>
<circle cx="46.1602" cy="64.7402" r="9" fill="#0F0F0F"/>
<circle cx="64.7402" cy="64.7402" r="9" fill="#0F0F0F"/>
<circle cx="83.3203" cy="64.7402" r="9" fill="#0F0F0F"/>
<circle cx="101.9" cy="64.7402" r="9" fill="#0F0F0F"/>
<circle cx="120.48" cy="64.7402" r="9" fill="#0F0F0F"/>
<circle cx="139.061" cy="64.7402" r="9" fill="#0F0F0F"/>
<circle cx="9" cy="64.7402" r="9" fill="#0F0F0F"/>
<circle cx="27.5801" cy="83.3203" r="9" fill="#0F0F0F"/>
<circle cx="46.1602" cy="83.3203" r="9" fill="#0F0F0F"/>
<circle cx="64.7402" cy="83.3203" r="9" fill="#0F0F0F"/>
<circle cx="83.3203" cy="83.3203" r="9" fill="#0F0F0F"/>
<circle cx="101.9" cy="83.3203" r="9" fill="#0F0F0F"/>
<circle cx="120.48" cy="83.3203" r="9" fill="#0F0F0F"/>
<circle cx="139.061" cy="83.3203" r="9" fill="#0F0F0F"/>
<circle cx="9" cy="83.3203" r="9" fill="#0F0F0F"/>
<circle cx="27.5801" cy="101.9" r="9" fill="#0F0F0F"/>
<circle cx="46.1602" cy="101.9" r="9" fill="#0F0F0F"/>
<circle cx="64.7402" cy="101.9" r="9" fill="#0F0F0F"/>
<circle cx="83.3203" cy="101.9" r="9" fill="#0F0F0F"/>
<circle cx="101.9" cy="101.9" r="9" fill="#0F0F0F"/>
<circle cx="120.48" cy="101.9" r="9" fill="#0F0F0F"/>
<circle cx="139.061" cy="101.9" r="9" fill="#0F0F0F"/>
<circle cx="9" cy="101.9" r="9" fill="#0F0F0F"/>
<circle cx="27.5801" cy="120.481" r="9" fill="#0F0F0F"/>
<circle cx="46.1602" cy="120.481" r="9" fill="#0F0F0F"/>
<circle cx="64.7402" cy="120.481" r="9" fill="#0F0F0F"/>
<circle cx="83.3203" cy="120.481" r="9" fill="#0F0F0F"/>
<circle cx="101.9" cy="120.481" r="9" fill="#0F0F0F"/>
<circle cx="120.48" cy="120.481" r="9" fill="#0F0F0F"/>
<circle cx="139.061" cy="120.481" r="9" fill="#0F0F0F"/>
<circle cx="9" cy="120.481" r="9" fill="#0F0F0F"/>
<circle cx="27.5801" cy="139.061" r="9" fill="#0F0F0F"/>
<circle cx="46.1602" cy="139.061" r="9" fill="#0F0F0F"/>
<circle cx="64.7402" cy="139.061" r="9" fill="#0F0F0F"/>
<circle cx="83.3203" cy="139.061" r="9" fill="#0F0F0F"/>
<circle cx="101.9" cy="139.061" r="9" fill="#0F0F0F"/>
<circle cx="120.48" cy="139.061" r="9" fill="#0F0F0F"/>
<circle cx="139.061" cy="139.061" r="9" fill="#0F0F0F"/>
<circle cx="9" cy="139.061" r="9" fill="#0F0F0F"/>
</svg>
