<svg width="227" height="46" viewBox="0 0 227 46" fill="none" xmlns="http://www.w3.org/2000/svg">
<circle cx="113" cy="23" r="10" fill="#3D3D3D"/>
<path d="M78.0788 11C76.733 14.6971 76 18.6803 76 22.8317C76 27.1094 76.7783 31.2085 78.2033 35" stroke="#3D3D3D" stroke-width="8"/>
<path d="M42.8545 6C41.0059 11.3169 40 17.0389 40 23C40 28.9611 41.0059 34.6831 42.8545 40" stroke="#3D3D3D" stroke-width="8"/>
<path d="M7.42548 2C5.20518 8.58468 4 15.6491 4 23C4 30.3509 5.20518 37.4153 7.42548 44" stroke="#3D3D3D" stroke-width="8"/>
<path d="M148.124 11C149.47 14.6971 150.203 18.6803 150.203 22.8317C150.203 27.1094 149.425 31.2085 148 35" stroke="#3D3D3D" stroke-width="8"/>
<path d="M183.349 6C185.197 11.3169 186.203 17.0389 186.203 23C186.203 28.9611 185.197 34.6831 183.349 40" stroke="#3D3D3D" stroke-width="8"/>
<path d="M218.778 2C220.998 8.58468 222.203 15.6491 222.203 23C222.203 30.3509 220.998 37.4153 218.778 44" stroke="#3D3D3D" stroke-width="8"/>
</svg>
