<svg width="117" height="148" viewBox="0 0 117 148" fill="none" xmlns="http://www.w3.org/2000/svg">
<path d="M59.2141 111.097C53.5417 111.097 48.9255 106.543 48.8863 100.898V100.859V100.548H38.363V100.859C38.5195 112.304 47.9866 121.452 59.4879 121.296C70.7546 121.14 79.8696 112.07 80.0261 100.859V100.548H69.5027C69.5419 100.665 69.5418 100.743 69.5418 100.859C69.5418 106.504 64.9257 111.097 59.2141 111.097ZM38.9889 43.6759C30.6954 43.6759 23.9667 50.3713 23.9667 58.6238C23.9667 66.8763 30.6954 73.5717 38.9889 73.5717C47.2824 73.5717 54.0111 66.8763 54.0111 58.6238C54.0111 50.3713 47.2824 43.6759 38.9889 43.6759ZM34.2162 58.6627C34.2162 56.0546 36.3287 53.9137 38.9498 53.8747C41.5708 53.8747 43.7225 55.9768 43.7616 58.5849C43.7616 61.193 41.6491 63.334 39.028 63.3729C36.3679 63.3729 34.2554 61.2708 34.2162 58.6627ZM13.7172 32.2703C42.6271 23.1615 53.659 17.4781 58.6273 14.6754C63.5956 17.4781 74.5884 23.1615 103.537 32.2703C103.537 35.5402 105.376 134.92 58.6273 134.843C11.8786 134.881 13.6781 35.5402 13.7172 32.2703ZM58.6273 148C119.029 148.156 116.643 26.8984 116.643 22.7333C79.2437 10.9384 65.0039 3.58127 58.6273 0C52.1725 3.54234 37.9718 10.8995 0.533677 22.7333C0.533677 26.8984 -1.81353 148.156 58.6273 148Z" fill="#0F0F0F"/>
<rect x="63.5449" y="53.1101" width="29.0335" height="9.91388" fill="#0F0F0F"/>
</svg>
