<svg width="150" height="149" viewBox="0 0 150 149" fill="none" xmlns="http://www.w3.org/2000/svg">
<ellipse cx="75.0001" cy="74.358" rx="68.358" ry="68.9999" transform="rotate(90 75.0001 74.358)" stroke="#0F0F0F" stroke-width="12"/>
<path d="M72.1125 142.395C59.6912 123.627 52.2148 99.4538 52.2148 73.0741C52.2148 48.0283 58.9542 24.9716 70.2663 6.6416" stroke="#0F0F0F" stroke-width="12"/>
<path d="M77.8875 142.395C90.3088 123.627 97.7852 99.4538 97.7852 73.0741C97.7852 48.0283 91.0458 24.9716 79.7337 6.6416" stroke="#0F0F0F" stroke-width="12"/>
<path d="M18.8359 33.6816C35.2048 41.5714 54.431 46.1162 74.9986 46.1162C95.5663 46.1162 114.793 41.5714 131.161 33.6816" stroke="#0F0F0F" stroke-width="12"/>
<path d="M19.4785 115.369C35.7072 107.669 54.7 103.242 74.9994 103.242C95.2988 103.242 114.292 107.669 130.52 115.369" stroke="#0F0F0F" stroke-width="12"/>
<path d="M9.20898 74.6787H140.79" stroke="#0F0F0F" stroke-width="12"/>
</svg>
