<?xml version="1.0" encoding="utf-8"?><svg xmlns="http://www.w3.org/2000/svg" xmlns:xlink="http://www.w3.org/1999/xlink"><symbol viewBox="0 0 52 58" fill="none" id="across" xmlns="http://www.w3.org/2000/svg">
    <circle cx="42.361" cy="28.946" r="6" transform="rotate(45 42.361 28.946)" stroke="#3D3D3D" stroke-width="6"/>
    <path d="M39.441 28.46H21.5" stroke="#3D3D3D" stroke-width="6"/>
    <circle cx="29.434" cy="48.088" r="6" transform="rotate(90 29.434 48.088)" stroke="#3D3D3D" stroke-width="6"/>
    <path d="M26.71 44.68L18 35" stroke="#3D3D3D" stroke-width="6"/>
    <circle cx="6" cy="6" r="6" transform="matrix(0 -1 -1 0 35.434 15.092)" stroke="#3D3D3D" stroke-width="6"/>
    <path d="M26.71 12.5L18 22" stroke="#3D3D3D" stroke-width="6"/>
    <path d="M24 32v-7h6l-2 7h-4z" fill="#0F0F0F"/>
    <circle cx="13.287" cy="28.015" r="9" transform="rotate(45 13.287 28.015)" stroke="#3D3D3D" stroke-width="6"/>
</symbol><symbol viewBox="0 0 26 26" fill="none" id="arrow-right" xmlns="http://www.w3.org/2000/svg">
    <path d="M12.819 2l10.818 10.819m0 0L12.818 23.636m10.819-10.819H1"/>
</symbol><symbol viewBox="0 0 486.65 486.65" id="back" xmlns="http://www.w3.org/2000/svg">
    <path d="M202.114 444.648a30.365 30.365 0 0 1-21.257-9.11L8.982 263.966c-11.907-11.81-11.986-31.037-.176-42.945l.176-.176L180.858 49.274c12.738-10.909 31.908-9.426 42.817 3.313 9.736 11.369 9.736 28.136 0 39.504L73.36 242.406l151.833 150.315c11.774 11.844 11.774 30.973 0 42.817a30.368 30.368 0 0 1-23.079 9.11z" data-original="#000000"/>
    <path d="M456.283 272.773H31.15c-16.771 0-30.367-13.596-30.367-30.367s13.596-30.367 30.367-30.367h425.133c16.771 0 30.367 13.596 30.367 30.367s-13.596 30.367-30.367 30.367z" data-original="#000000"/>
</symbol><symbol viewBox="0 0 15 26" fill="none" id="chevron-left" xmlns="http://www.w3.org/2000/svg">
    <path d="M13 2L2.182 12.819 13 23.636"/>
</symbol><symbol viewBox="0 0 15 26" fill="none" id="chevron-right" xmlns="http://www.w3.org/2000/svg">
    <path d="M2 2l10.818 10.819L2 23.636"/>
</symbol><symbol viewBox="0 0 59 59" fill="none" id="connections" xmlns="http://www.w3.org/2000/svg">
    <circle cx="29" cy="30.5" r="20.152" transform="rotate(45 29 30.5)" stroke="#3D3D3D" stroke-width="6"/>
    <circle cx="29" cy="30.017" r="8.497" transform="rotate(45 29 30.017)" stroke="#3D3D3D" stroke-width="6"/>
    <path d="M55.916 26.724l-24 6.5-4.5-2 20-19.5 7 3 1.5 12z" fill="#0F0F0F"/>
    <path d="M48.62 10.313l-19.8 19.8" stroke="#3D3D3D" stroke-width="6"/>
    <path d="M48.62.414l3.535 9.192L40.84 20.92l-3.536-9.192L48.62.414z" fill="#343434"/>
    <path d="M49.326 6.778l9.192 3.536-11.313 11.313-9.193-3.535L49.326 6.778z" fill="#343434"/>
</symbol><symbol viewBox="0 0 15 16" fill="none" id="fb" xmlns="http://www.w3.org/2000/svg">
    <path d="M7.5.647C3.439.647.147 3.959.147 8.045c0 3.69 2.685 6.75 6.2 7.307v-5.167H4.483v-2.14h1.866v-1.63c0-1.853 1.095-2.878 2.776-2.878h.003c.806 0 1.648.146 1.648.146v1.82H9.85c-.915 0-1.197.572-1.197 1.155v1.387h2.039l-.326 2.14H8.652v5.168c3.514-.556 6.2-3.616 6.2-7.308 0-4.086-3.29-7.398-7.352-7.398z" fill="#fff"/>
</symbol><symbol viewBox="0 0 13 17" fill="none" id="gitnation" xmlns="http://www.w3.org/2000/svg">
    <path fill-rule="evenodd" clip-rule="evenodd" d="M4.82 6.86a.539.539 0 0 0-.539-.537.54.54 0 0 0 0 1.078h.006a.54.54 0 0 0 .532-.542z" fill="#fff"/>
    <path fill-rule="evenodd" clip-rule="evenodd" d="M12.382 3.892v-.623l-.563-.18c-2.317-.74-3.924-1.377-4.912-1.945L6.503.912l-.405.23c-.377.213-1.523.865-4.915 1.946l-.565.18v.623c-.014 1.928.153 8.437 2.896 11.188.84.844 1.844 1.271 2.985 1.274h.007c1.138 0 2.14-.426 2.979-1.267 2.743-2.747 2.91-9.263 2.895-11.195h.002zM2.593 6.867a1.7 1.7 0 0 1 1.688-1.712h.01a1.705 1.705 0 0 1 .007 3.409 1.7 1.7 0 0 1-1.705-1.696zm6.328 4.802a2.358 2.358 0 0 1-2.351 2.364 2.357 2.357 0 0 1-2.35-2.364v-.032H5.41v.038c0 .645.52 1.168 1.163 1.168h.002a1.168 1.168 0 0 0 1.158-1.174v-.032H8.92v.032h.001zm1.412-4.271H7.051V6.246h3.282v1.152z" fill="#fff"/>
</symbol><symbol viewBox="0 0 24 22" fill="none" id="heart" xmlns="http://www.w3.org/2000/svg">
    <path d="M3.458 3.458a4.98 4.98 0 0 0 0 7.042l8.5 8.5 8.5-8.5a4.98 4.98 0 0 0-7.041-7.042l-1.459 1.459L10.5 3.458a4.98 4.98 0 0 0-7.042 0z" stroke="#fff" stroke-width="3" stroke-linecap="round"/>
</symbol><symbol viewBox="0 0 15 14" fill="none" id="instagram" xmlns="http://www.w3.org/2000/svg">
    <path d="M7.5 4.797c-1.22 0-2.203.993-2.203 2.203S6.29 9.203 7.5 9.203 9.703 8.21 9.703 7 8.71 4.797 7.5 4.797zM14.118 7c0-.917 0-1.815-.048-2.732-.047-1.059-.293-2.004-1.068-2.77C12.227.723 11.291.477 10.232.43 9.315.382 8.417.382 7.5.382c-.917 0-1.815 0-2.732.048-1.059.047-2.004.293-2.77 1.068C1.223 2.273.977 3.209.93 4.268.882 5.185.882 6.083.882 7c0 .917 0 1.815.048 2.732.047 1.059.293 2.004 1.068 2.77.775.775 1.711 1.021 2.77 1.068.917.048 1.815.048 2.732.048.917 0 1.815 0 2.732-.048 1.059-.047 2.004-.293 2.77-1.068.775-.775 1.021-1.711 1.068-2.77.057-.907.048-1.815.048-2.732zM7.5 10.394A3.385 3.385 0 0 1 4.106 7 3.385 3.385 0 0 1 7.5 3.606 3.385 3.385 0 0 1 10.894 7 3.385 3.385 0 0 1 7.5 10.394zm3.536-6.136a.793.793 0 0 1-.794-.794c0-.444.35-.794.794-.794.444 0 .794.35.794.794a.757.757 0 0 1-.227.558.757.757 0 0 1-.558.227l-.01.01z" fill="#fff"/>
</symbol><symbol viewBox="0 0 51 57" fill="none" id="lightning" xmlns="http://www.w3.org/2000/svg">
    <path d="M30 16V8.36l-5.198 5.599-13 14L7.12 33H21v15.64l5.198-5.599 13-14L43.88 24H30v-8z" stroke="#43FF01" stroke-width="6"/>
</symbol><symbol viewBox="0 0 32 19" fill="none" id="medium" xmlns="http://www.w3.org/2000/svg">
    <ellipse cx="9.045" cy="9.045" rx="9.045" ry="9.045" fill="#fff"/>
    <ellipse cx="23.316" cy="9.247" rx="4.422" ry="8.442" fill="#fff"/>
    <ellipse cx="30.15" cy="9.246" rx="1.608" ry="7.638" fill="#fff"/>
</symbol><symbol viewBox="0 0 46 52" fill="none" id="product" xmlns="http://www.w3.org/2000/svg">
    <path d="M3 19h40v23a7 7 0 0 1-7 7H10a7 7 0 0 1-7-7V19z" stroke="#3D3D3D" stroke-width="6"/>
    <path d="M17 14.5V23h3l4-8.5h-7zM33 14.5V23h3l4-8.5h-7z" fill="#0F0F0F"/>
    <path d="M30 30V11a8 8 0 1 0-16 0v19" stroke="#3D3D3D" stroke-width="6"/>
</symbol><symbol viewBox="0 0 47 47" fill="none" id="star-wc" xmlns="http://www.w3.org/2000/svg">
    <path d="M23.499 3.911C21.221 15.756 15.755 21.222 3.91 23.5v.911C15.755 26.69 21.221 32.156 23.5 44h.911C26.688 32.156 32.155 26.689 44 24.411V23.5C32.155 21.222 26.688 15.756 24.41 3.911H23.5z" stroke="#3D3D3D" stroke-width="6"/>
    <circle cx="6" cy="6" r="5" fill="#343434"/>
    <circle cx="8" cy="40" r="3" fill="#343434"/>
</symbol><symbol viewBox="0 0 18 20" fill="none" id="tiktok" xmlns="http://www.w3.org/2000/svg">
    <path d="M16.42 4.592a4.812 4.812 0 0 1-2.58-1.474A4.652 4.652 0 0 1 12.652.432V0H9.209v13.397a2.8 2.8 0 0 1-.548 1.651 2.89 2.89 0 0 1-1.427 1.03 2.95 2.95 0 0 1-1.771.021 2.895 2.895 0 0 1-1.452-.994 2.798 2.798 0 0 1-.06-3.352A2.89 2.89 0 0 1 5.393 10.7a2.948 2.948 0 0 1 1.799-.014v-3.43a6.435 6.435 0 0 0-3.805.651 6.262 6.262 0 0 0-2.709 2.699 6.095 6.095 0 0 0-.604 3.74 6.157 6.157 0 0 0 1.727 3.387 6.363 6.363 0 0 0 3.237 1.737c1.23.251 2.51.137 3.675-.329a6.303 6.303 0 0 0 2.862-2.283 6.116 6.116 0 0 0 1.077-3.46V6.552a8.29 8.29 0 0 0 4.77 1.496V4.694c-.337 0-.673-.034-1.002-.102z" fill="#fff"/>
</symbol><symbol viewBox="0 0 13 12" fill="none" id="twitter" xmlns="http://www.w3.org/2000/svg">
    <path d="M9.883.118h1.804L7.746 4.79l4.636 6.357h-3.63L5.909 7.291l-3.254 3.856H.85L5.065 6.15.619.118H4.34l2.57 3.524L9.883.118zm-.633 9.91h1l-6.453-8.85H2.724l6.526 8.85z" fill="#fff"/>
</symbol><symbol viewBox="0 0 409.592 409.592" id="youtube" xmlns="http://www.w3.org/2000/svg">
    <path d="M403.882 107.206c-2.15-17.935-19.052-35.133-36.736-37.437a1316.32 1316.32 0 0 0-324.685 0C24.762 72.068 7.86 89.271 5.71 107.206c-7.613 65.731-7.613 129.464 0 195.18 2.15 17.935 19.052 35.149 36.751 37.437a1316.32 1316.32 0 0 0 324.685 0c17.684-2.284 34.586-19.502 36.736-37.437 7.614-65.71 7.614-129.449 0-195.18zM170.661 273.074V136.539l102.4 68.27-102.4 68.265z" data-original="#000000"/>
</symbol></svg>