<svg xmlns="http://www.w3.org/2000/svg" version="1.1" xmlns:xlink="http://www.w3.org/1999/xlink" width="512" height="512" x="0" y="0" viewBox="0 0 486.65 486.65" style="enable-background:new 0 0 512 512" xml:space="preserve" class=""><g><path d="M202.114 444.648a30.365 30.365 0 0 1-21.257-9.11L8.982 263.966c-11.907-11.81-11.986-31.037-.176-42.945l.176-.176L180.858 49.274c12.738-10.909 31.908-9.426 42.817 3.313 9.736 11.369 9.736 28.136 0 39.504L73.36 242.406l151.833 150.315c11.774 11.844 11.774 30.973 0 42.817a30.368 30.368 0 0 1-23.079 9.11z" fill="#000000" opacity="1" data-original="#000000" class=""></path><path d="M456.283 272.773H31.15c-16.771 0-30.367-13.596-30.367-30.367s13.596-30.367 30.367-30.367h425.133c16.771 0 30.367 13.596 30.367 30.367s-13.596 30.367-30.367 30.367z" fill="#000000" opacity="1" data-original="#000000" class=""></path></g></svg>
