<svg width="15" height="16" viewBox="0 0 15 16" fill="none" xmlns="http://www.w3.org/2000/svg">
<path d="M7.49991 0.646973C3.43856 0.646973 0.146973 3.95855 0.146973 8.04456C0.146973 11.7358 2.83223 14.7951 6.34757 15.3523V10.1847H4.48205V8.04456H6.34757V6.41507C6.34757 4.56249 7.44333 3.53723 9.12359 3.53723C9.12474 3.53723 9.1256 3.53723 9.12675 3.53723C9.12704 3.53723 9.12733 3.53723 9.12761 3.53723C9.93328 3.53723 10.7754 3.68316 10.7754 3.68316V5.50308H9.84883C8.93431 5.50308 8.65226 6.07466 8.65226 6.65838V8.04456H10.691L10.3647 10.1847H8.65226V15.3529C12.1656 14.7975 14.8529 11.7373 14.8529 8.04456C14.8529 3.95855 11.5613 0.646973 7.49991 0.646973Z" fill="white"/>
</svg>
