<svg width="23" height="30" viewBox="0 0 23 30" fill="none" xmlns="http://www.w3.org/2000/svg">
<path fill-rule="evenodd" clip-rule="evenodd" d="M11.4812 21.5891C11.2165 21.5887 10.9545 21.5358 10.7101 21.4331C10.4657 21.3305 10.2437 21.1803 10.0568 20.991C9.86983 20.8017 9.72164 20.5771 9.62067 20.33C9.51969 20.0828 9.4679 19.818 9.46824 19.5507V19.491H7.41158V19.5507C7.41158 20.6423 7.84088 21.6891 8.60504 22.461C9.36921 23.2328 10.4056 23.6665 11.4863 23.6665C12.567 23.6665 13.6035 23.2328 14.3676 22.461C15.1318 21.6891 15.5611 20.6423 15.5611 19.5507C15.5652 19.531 15.5652 19.5107 15.5611 19.491H13.5044V19.5507C13.5044 19.8186 13.4521 20.0839 13.3506 20.3314C13.249 20.5788 13.1001 20.8036 12.9124 20.993C12.7248 21.1823 12.502 21.3324 12.2568 21.4347C12.0117 21.537 11.749 21.5894 11.4838 21.5891H11.4812ZM7.53498 8.67821C6.95442 8.67872 6.38704 8.85307 5.90458 9.17923C5.42211 9.50539 5.04622 9.96871 4.82441 10.5106C4.60259 11.0525 4.54482 11.6487 4.65839 12.2238C4.77197 12.7989 5.05177 13.327 5.46247 13.7415C5.87316 14.156 6.39627 14.4381 6.9657 14.5523C7.53514 14.6665 8.12535 14.6077 8.66166 14.3831C9.19797 14.1586 9.65631 13.7785 9.9788 13.2909C10.3013 12.8033 10.4734 12.2301 10.4734 11.6437C10.4734 11.2541 10.3974 10.8682 10.2497 10.5083C10.102 10.1483 9.88549 9.82125 9.6126 9.54585C9.33971 9.27045 9.01577 9.05208 8.65927 8.9032C8.30278 8.75433 7.92074 8.67787 7.53498 8.67821ZM6.60176 11.6437C6.60126 11.4572 6.65553 11.2746 6.75777 11.1193C6.86 10.9639 7.00558 10.8427 7.17606 10.771C7.34653 10.6992 7.53426 10.6802 7.71545 10.7163C7.89665 10.7524 8.06317 10.8419 8.19394 10.9736C8.32471 11.1053 8.41383 11.2733 8.45005 11.4562C8.48627 11.6392 8.46795 11.8288 8.39739 12.0012C8.32683 12.1736 8.20721 12.3209 8.05369 12.4246C7.90017 12.5283 7.71966 12.5837 7.53498 12.5837C7.28792 12.5837 7.05092 12.4848 6.87598 12.3085C6.70104 12.1323 6.60245 11.8932 6.60176 11.6437ZM2.57584 6.41128C8.23166 4.59358 10.3809 3.477 11.3501 2.92131C12.3193 3.477 14.4736 4.59617 20.1243 6.41128C20.1243 7.05527 20.4842 26.7774 11.3501 26.7618C2.21593 26.7462 2.57584 7.06825 2.57584 6.41128ZM11.3501 29.3766C23.1604 29.4052 22.6977 5.34401 22.6977 4.51306C15.3863 2.17602 12.6072 0.711501 11.3501 0C10.1007 0.711501 7.31644 2.17083 0.00244358 4.51306C0.00244358 5.34401 -0.460301 29.4052 11.3501 29.3766ZM12.3064 10.5764V12.5707H18.0008V10.5764H12.3064Z" fill="white"/>
</svg>
