<svg width="13" height="17" viewBox="0 0 13 17" fill="none" xmlns="http://www.w3.org/2000/svg">
<path fill-rule="evenodd" clip-rule="evenodd" d="M4.81913 6.85938C4.8157 6.56239 4.57526 6.32116 4.28102 6.32343C3.98564 6.32684 3.74864 6.56808 3.74864 6.86507C3.74864 7.16206 3.98678 7.40101 4.28102 7.40101H4.28675C4.58213 7.3976 4.81913 7.15637 4.81913 6.85938Z" fill="white"/>
<path fill-rule="evenodd" clip-rule="evenodd" d="M12.3824 3.89176V3.26933L11.8191 3.08954C9.5018 2.34878 7.89549 1.71156 6.90744 1.14375L6.50329 0.911621L6.09799 1.14148C5.72132 1.3554 4.57527 2.00741 1.18291 3.08841L0.618469 3.26819V3.89062C0.603585 5.81934 0.770741 12.3281 3.51394 15.0795C4.3543 15.9227 5.35838 16.3505 6.49871 16.3528H6.50558C7.64361 16.3528 8.64541 15.9272 9.48462 15.0863C12.2278 12.3395 12.395 5.82276 12.3801 3.89062L12.3824 3.89176ZM2.59343 6.86734C2.58771 5.92631 3.34335 5.1605 4.28102 5.15482H4.29018C5.22672 5.15823 5.98579 5.92062 5.98579 6.86506C5.9835 7.80041 5.22901 8.55711 4.2982 8.56394C3.36166 8.56963 2.59916 7.80951 2.59343 6.86848V6.86734ZM8.92133 11.6692C8.92133 12.9755 7.86687 14.0326 6.56969 14.0326C5.27251 14.0326 4.22034 12.9733 4.22034 11.6692V11.6374H5.40876V11.6749C5.40876 12.3201 5.92969 12.8435 6.57198 12.8435H6.57427C7.21542 12.8401 7.73406 12.3144 7.73177 11.6692V11.6374H8.92019V11.6692H8.92133ZM10.333 7.3976H7.05055V6.24605H10.333V7.3976Z" fill="white"/>
</svg>
