<svg width="15" height="14" viewBox="0 0 15 14" fill="none" xmlns="http://www.w3.org/2000/svg">
<path d="M7.49997 4.79724C6.28043 4.79724 5.29724 5.78989 5.29724 6.99997C5.29724 8.21006 6.28989 9.2027 7.49997 9.2027C8.71006 9.2027 9.7027 8.21006 9.7027 6.99997C9.7027 5.78989 8.71006 4.79724 7.49997 4.79724ZM14.1176 6.99997C14.1176 6.08295 14.1176 5.18485 14.0704 4.26783C14.0231 3.20901 13.7773 2.26363 13.0021 1.49787C12.2269 0.72266 11.2909 0.476862 10.2321 0.429593C9.3151 0.382324 8.41699 0.382324 7.49997 0.382324C6.58296 0.382324 5.68485 0.382324 4.76783 0.429593C3.70901 0.476862 2.76363 0.72266 1.99787 1.49787C1.22266 2.27308 0.976862 3.20901 0.929593 4.26783C0.882324 5.18485 0.882324 6.08295 0.882324 6.99997C0.882324 7.91699 0.882324 8.8151 0.929593 9.73211C0.976862 10.7909 1.22266 11.7363 1.99787 12.5021C2.77308 13.2773 3.70901 13.5231 4.76783 13.5703C5.68485 13.6176 6.58296 13.6176 7.49997 13.6176C8.41699 13.6176 9.3151 13.6176 10.2321 13.5703C11.2909 13.5231 12.2363 13.2773 13.0021 12.5021C13.7773 11.7269 14.0231 10.7909 14.0704 9.73211C14.1271 8.82455 14.1176 7.91699 14.1176 6.99997ZM7.49997 10.3939C5.61867 10.3939 4.10606 8.88127 4.10606 6.99997C4.10606 5.11867 5.61867 3.60606 7.49997 3.60606C9.38128 3.60606 10.8939 5.11867 10.8939 6.99997C10.8939 8.88127 9.38128 10.3939 7.49997 10.3939ZM11.0357 4.25837C10.6008 4.25837 10.2416 3.90859 10.2416 3.46426C10.2416 3.01993 10.5914 2.67014 11.0357 2.67014C11.48 2.67014 11.8298 3.01993 11.8298 3.46426C11.8322 3.56781 11.8133 3.67075 11.7743 3.7667C11.7352 3.86264 11.6769 3.94955 11.6029 4.02203C11.5304 4.09603 11.4435 4.15435 11.3476 4.19338C11.2516 4.23241 11.1487 4.25131 11.0451 4.24892L11.0357 4.25837Z" fill="white"/>
</svg>
