<svg width="18" height="20" viewBox="0 0 18 20" fill="none" xmlns="http://www.w3.org/2000/svg">
<path id="Vector" d="M16.4198 4.59168C15.4216 4.38236 14.5178 3.86594 13.84 3.11771C13.1622 2.36948 12.7459 1.42856 12.6518 0.432123V0H9.20868V13.3968C9.20655 13.9899 9.01493 14.5674 8.66074 15.0482C8.30655 15.5291 7.8076 15.889 7.234 16.0774C6.6604 16.2659 6.04099 16.2734 5.46281 16.099C4.88463 15.9245 4.37673 15.5768 4.0105 15.1047C3.63859 14.6248 3.43228 14.0411 3.42149 13.4385C3.4107 12.8358 3.596 12.2454 3.9505 11.753C4.30501 11.2605 4.8103 10.8916 5.3931 10.6996C5.9759 10.5077 6.60592 10.5027 7.19178 10.6855V7.25595C5.88534 7.07889 4.55512 7.3066 3.38719 7.90724C2.21926 8.50788 1.27203 9.4514 0.677992 10.6058C0.083954 11.7603 -0.127179 13.0679 0.0741249 14.3457C0.275429 15.6236 0.879101 16.8078 1.8007 17.7327C2.67958 18.6144 3.8065 19.2193 5.0376 19.4702C6.2687 19.7211 7.54814 19.6066 8.7126 19.1414C9.87706 18.6762 10.8737 17.8814 11.5753 16.8584C12.277 15.8354 12.6517 14.6306 12.6518 13.3978V6.5524C14.0433 7.5277 15.7117 8.05067 17.4222 8.04769V4.69359C17.0854 4.69399 16.7494 4.65984 16.4198 4.59168Z" fill="white"/>
</svg>
